<svg width="18" height="18" viewBox="0 0 18 18" fill="none" xmlns="http://www.w3.org/2000/svg">
<path d="M8.91104 0.0586251C6.66452 0.0585909 4.50099 0.907559 2.854 2.4354C1.20702 3.96323 0.198282 6.05705 0.0299387 8.29725C-0.138405 10.5374 0.546087 12.7585 1.94624 14.5153C3.34639 16.2721 5.35875 17.4349 7.58004 17.7706L8.04503 17.8406V10.8186H5.94004V9.39362H8.04503V7.50063C7.96842 6.62955 8.23503 5.76299 8.78804 5.08563C9.06888 4.82608 9.40052 4.62764 9.76199 4.50285C10.1235 4.37805 10.5069 4.32963 10.888 4.36063C11.3358 4.35359 11.7834 4.38067 12.227 4.44163V5.60863H11.236C10.9797 5.60847 10.7278 5.67608 10.506 5.80464C10.2842 5.93319 10.1003 6.1181 9.97303 6.34062C9.74631 6.78062 9.63809 7.27209 9.65903 7.76663V9.39362H12.139L11.918 10.8196H9.65803V17.8536L10.118 17.7916C12.3594 17.4911 14.4025 16.3493 15.8329 14.5977C17.2632 12.8461 17.9737 10.616 17.8201 8.3598C17.6665 6.10362 16.6604 3.99034 15.0059 2.44873C13.3514 0.907114 11.1724 0.0526238 8.91104 0.0586251ZM8.91104 0.868627C10.9226 0.86292 12.8639 1.60772 14.3554 2.95739C15.8469 4.30707 16.7814 6.16455 16.976 8.16663C17.1707 10.1687 16.6116 12.1714 15.408 13.7832C14.2044 15.3949 12.443 16.4997 10.468 16.8816V11.6286H12.612L13.083 8.58263H10.468V7.76563C10.4537 7.41304 10.5243 7.06217 10.674 6.74262C10.7206 6.63571 10.8002 6.54654 10.9012 6.48822C11.0021 6.4299 11.1192 6.40551 11.235 6.41863H13.035V3.70863L12.684 3.66163C12.0875 3.58114 11.4859 3.54438 10.884 3.55163C10.3941 3.52194 9.90323 3.59296 9.44178 3.7603C8.98034 3.92765 8.55806 4.18778 8.20103 4.52463C7.50214 5.35261 7.15442 6.42089 7.23204 7.50163V8.58463H5.12903V11.6306H7.23404V16.8586C5.27226 16.4523 3.53143 15.3316 2.34946 13.714C1.16749 12.0964 0.628695 10.0973 0.837663 8.10484C1.04663 6.11236 1.98845 4.26859 3.48031 2.93142C4.97217 1.59426 6.90765 0.859094 8.91104 0.868627Z" fill="#E45B9F"/>
</svg>
