<svg width="18" height="18" viewBox="0 0 18 18" fill="none" xmlns="http://www.w3.org/2000/svg">
<path d="M8.926 0C7.16061 0 5.43486 0.523502 3.96699 1.5043C2.49911 2.4851 1.35504 3.87915 0.679456 5.51017C0.00386858 7.14118 -0.172897 8.9359 0.171514 10.6674C0.515926 12.3989 1.36605 13.9893 2.61437 15.2376C3.86269 16.486 5.45315 17.3361 7.18463 17.6805C8.9161 18.0249 10.7108 17.8481 12.3418 17.1726C13.9729 16.497 15.3669 15.3529 16.3477 13.885C17.3285 12.4171 17.852 10.6914 17.852 8.926C17.8504 6.55916 16.9095 4.28972 15.2359 2.61612C13.5623 0.942514 11.2928 0.00158937 8.926 0ZM8.926 0.776001C10.5377 0.776199 12.1131 1.2543 13.4531 2.14984C14.793 3.04539 15.8374 4.31815 16.454 5.80721C17.0706 7.29626 17.2318 8.93472 16.9173 10.5154C16.6028 12.0961 15.8266 13.548 14.6869 14.6876C13.5472 15.8271 12.0952 16.6031 10.5144 16.9175C8.93371 17.2318 7.29526 17.0704 5.80629 16.4536C4.31731 15.8368 3.04467 14.7923 2.14929 13.4522C1.25391 12.1122 0.776006 10.5367 0.776006 8.925C0.775349 7.85459 0.985712 6.79455 1.39507 5.8055C1.80442 4.81646 2.40474 3.91781 3.16168 3.16096C3.91862 2.40412 4.81734 1.80391 5.80643 1.39468C6.79553 0.985446 7.85559 0.775212 8.926 0.776001ZM5.433 3.876C5.20313 3.87659 4.97858 3.94524 4.78766 4.07328C4.59675 4.20133 4.44802 4.38303 4.36023 4.59548C4.27245 4.80794 4.24953 5.04163 4.29438 5.26709C4.33923 5.49254 4.44983 5.69968 4.61224 5.86236C4.77465 6.02505 4.98159 6.13601 5.20697 6.18124C5.43235 6.22647 5.66608 6.20396 5.87869 6.11654C6.09129 6.02911 6.27325 5.8807 6.40162 5.69C6.52999 5.49931 6.59902 5.27487 6.6 5.045C6.59842 4.73625 6.47487 4.44065 6.25627 4.22262C6.03767 4.00458 5.74175 3.88179 5.433 3.881V3.876ZM5.433 4.652C5.50974 4.652 5.58476 4.67475 5.64856 4.71739C5.71237 4.76002 5.7621 4.82062 5.79147 4.89152C5.82084 4.96242 5.82852 5.04043 5.81355 5.1157C5.79858 5.19096 5.76163 5.26009 5.70736 5.31436C5.6531 5.36862 5.58396 5.40557 5.5087 5.42054C5.43343 5.43551 5.35542 5.42783 5.28452 5.39846C5.21363 5.3691 5.15303 5.31937 5.11039 5.25556C5.06776 5.19176 5.045 5.11674 5.045 5.04C5.04486 4.98924 5.05485 4.93897 5.07436 4.89211C5.09387 4.84525 5.12252 4.80275 5.15865 4.76709C5.19477 4.73144 5.23764 4.70333 5.28475 4.68443C5.33185 4.66553 5.38225 4.6562 5.433 4.657V4.652ZM4.65701 6.592C4.5541 6.592 4.45541 6.63288 4.38265 6.70564C4.30988 6.77841 4.26901 6.8771 4.26901 6.98V12.801C4.26901 12.9039 4.30988 13.0026 4.38265 13.0754C4.45541 13.1481 4.5541 13.189 4.65701 13.189H6.209C6.31191 13.189 6.4106 13.1481 6.48336 13.0754C6.55613 13.0026 6.59701 12.9039 6.59701 12.801V6.985C6.59701 6.8821 6.55613 6.78341 6.48336 6.71064C6.4106 6.63788 6.31191 6.597 6.209 6.597L4.65701 6.592ZM7.75701 6.592C7.6541 6.592 7.55541 6.63288 7.48265 6.70564C7.40988 6.77841 7.369 6.8771 7.369 6.98V12.801C7.369 12.9039 7.40988 13.0026 7.48265 13.0754C7.55541 13.1481 7.6541 13.189 7.75701 13.189H9.309C9.41191 13.189 9.5106 13.1481 9.58336 13.0754C9.65613 13.0026 9.697 12.9039 9.697 12.801V9.9C9.697 9.64274 9.7992 9.39602 9.98111 9.21411C10.163 9.0322 10.4097 8.93 10.667 8.93C10.9243 8.93 11.171 9.0322 11.3529 9.21411C11.5348 9.39602 11.637 9.64274 11.637 9.9V12.811C11.637 12.9139 11.6779 13.0126 11.7506 13.0854C11.8234 13.1581 11.9221 13.199 12.025 13.199H13.577C13.6799 13.199 13.7786 13.1581 13.8514 13.0854C13.9241 13.0126 13.965 12.9139 13.965 12.811V9.511C13.9637 8.7404 13.6574 8.00165 13.1131 7.45618C12.5687 6.91072 11.8306 6.6029 11.06 6.6C10.5822 6.61131 10.115 6.74342 9.70201 6.984C9.70095 6.88179 9.65961 6.78412 9.58696 6.71222C9.51431 6.64032 9.41622 6.59999 9.314 6.6L7.75701 6.592ZM5.04001 7.368H5.81601V12.413H5.04001V7.368ZM8.14001 7.368H8.91601V7.685C8.91593 7.76113 8.93825 7.83561 8.9802 7.89914C9.02214 7.96268 9.08185 8.01248 9.15189 8.04232C9.22193 8.07217 9.2992 8.08076 9.37408 8.06701C9.44896 8.05326 9.51814 8.01778 9.57301 7.965C9.87437 7.67437 10.2546 7.47889 10.6663 7.40296C11.0781 7.32703 11.503 7.37401 11.8883 7.53803C12.2735 7.70205 12.6018 7.97585 12.8324 8.32529C13.0631 8.67473 13.1857 9.08433 13.185 9.503V12.414H12.409V9.9C12.409 9.4368 12.225 8.99257 11.8975 8.66504C11.5699 8.33751 11.1257 8.1535 10.6625 8.1535C10.1993 8.1535 9.75508 8.33751 9.42755 8.66504C9.10001 8.99257 8.91601 9.4368 8.91601 9.9V12.422H8.15001L8.14001 7.368Z" fill="#E45B9F"/>
</svg>
