<svg width="18" height="18" viewBox="0 0 18 18" fill="none" xmlns="http://www.w3.org/2000/svg">
<path d="M8.89707 0.0586735C7.34433 0.0520863 5.81713 0.453728 4.46853 1.22335C3.11993 1.99297 1.9973 3.10354 1.21315 4.44374C0.428996 5.78395 0.010872 7.30672 0.000679205 8.85944C-0.00951364 10.4122 0.388584 11.9403 1.15507 13.2907L0.0150721 17.3607C-0.00312143 17.4258 -0.00394878 17.4945 0.0126764 17.56C0.0293016 17.6255 0.0627972 17.6856 0.109829 17.7341C0.156861 17.7827 0.215789 17.818 0.280747 17.8367C0.345704 17.8554 0.414428 17.8568 0.480072 17.8407L4.72407 16.7887C5.91621 17.4246 7.23765 17.7804 8.58792 17.8289C9.9382 17.8775 11.2818 17.6175 12.5165 17.0689C13.7512 16.5202 14.8446 15.6972 15.7136 14.6626C16.5825 13.6279 17.2041 12.4087 17.5311 11.0977C17.8581 9.78673 17.8819 8.41845 17.6007 7.09689C17.3195 5.77532 16.7407 4.53526 15.9083 3.47098C15.0759 2.40669 14.0117 1.5462 12.7968 0.954918C11.5819 0.363632 10.2482 0.057117 8.89707 0.0586735ZM8.89707 0.832672C10.1382 0.832574 11.3628 1.11687 12.4769 1.66373C13.591 2.21059 14.565 3.00547 15.3241 3.98735C16.0832 4.96923 16.6072 6.112 16.8559 7.32793C17.1046 8.54385 17.0714 9.80059 16.7588 11.0017C16.4462 12.2028 15.8625 13.3162 15.0526 14.2566C14.2427 15.197 13.228 15.9393 12.0866 16.4266C10.9451 16.9138 9.70719 17.133 8.46783 17.0673C7.22848 17.0016 6.02065 16.6528 4.93707 16.0477C4.85131 15.9997 4.75049 15.9861 4.65507 16.0097L0.939072 16.9307L1.93907 13.3757C1.95305 13.3256 1.9568 13.2732 1.9501 13.2217C1.9434 13.1702 1.92638 13.1205 1.90007 13.0757C1.17382 11.8421 0.786565 10.4384 0.777535 9.0069C0.768504 7.57542 1.13802 6.16698 1.84865 4.9243C2.55927 3.68162 3.58575 2.64886 4.82407 1.93067C6.0624 1.21248 7.46855 0.834375 8.90007 0.834674L8.89707 0.832672ZM5.66407 4.31367C5.49533 4.31647 5.32898 4.35395 5.17535 4.4238C5.02172 4.49364 4.88411 4.59436 4.77107 4.71967C4.48639 4.99973 4.26023 5.33358 4.10572 5.70182C3.95121 6.07005 3.87145 6.46533 3.87107 6.86467C3.93519 7.80384 4.28835 8.70017 4.88207 9.43068C4.87207 9.41668 5.02007 9.63067 5.21907 9.89067C5.4772 10.2264 5.75257 10.5485 6.04407 10.8557C6.85955 11.7437 7.84592 12.458 8.94407 12.9557C9.38137 13.1413 9.82796 13.3042 10.2821 13.4437C10.8044 13.5997 11.3555 13.6339 11.8931 13.5437C12.256 13.4744 12.6011 13.3318 12.9071 13.1247C13.2792 12.9254 13.5733 12.6066 13.7421 12.2197C13.8366 11.9619 13.8974 11.693 13.9231 11.4197C13.9313 11.3198 13.9313 11.2195 13.9231 11.1197C13.9255 11.0134 13.8958 10.9089 13.8381 10.8197C13.6581 10.5197 13.4541 10.5197 13.2381 10.4107C13.1201 10.3517 12.7831 10.1877 12.4451 10.0267C12.1071 9.86567 11.8161 9.72668 11.6361 9.65968C11.4941 9.59577 11.3382 9.56926 11.1831 9.58267C11.0789 9.60079 10.9797 9.64015 10.8914 9.6983C10.8031 9.75645 10.7278 9.83214 10.6701 9.92067C10.5611 10.0827 10.1221 10.6007 9.98807 10.7537L9.94507 10.7317C9.77907 10.6497 9.57707 10.5797 9.27707 10.4217C8.88659 10.215 8.52232 9.96216 8.19207 9.66867C7.73307 9.2487 7.3379 8.76391 7.01907 8.22968C7.02807 8.21868 7.01907 8.22967 7.03707 8.21267C7.17507 8.07667 7.29707 7.91267 7.40007 7.79567C7.51449 7.65748 7.60907 7.504 7.68107 7.33967C7.73387 7.22251 7.75958 7.09496 7.75629 6.9665C7.753 6.83804 7.72079 6.71198 7.66207 6.59767C7.66807 6.60867 7.61807 6.49768 7.56207 6.37468C7.50607 6.25168 7.44107 6.08567 7.36907 5.91267C7.22407 5.56567 7.06207 5.17567 6.96907 4.94667C6.88796 4.70971 6.72146 4.51148 6.50207 4.39067C6.38194 4.33462 6.24908 4.3115 6.11707 4.32367C5.97607 4.31567 5.82007 4.31367 5.66407 4.31367ZM5.66407 5.08767C5.81307 5.08767 5.96407 5.08767 6.08307 5.09567C6.20207 5.10367 6.20207 5.10267 6.17707 5.09567C6.15207 5.08867 6.18607 5.08067 6.25807 5.25167C6.35207 5.47567 6.51507 5.86667 6.65807 6.21467C6.73107 6.38867 6.79907 6.55268 6.85307 6.68068C6.90707 6.80868 6.93707 6.88067 6.97107 6.94867C7.00407 7.01467 7.00207 6.97267 6.99007 6.99567C6.94759 7.10412 6.88856 7.20532 6.81507 7.29567C6.68907 7.44067 6.56107 7.60167 6.49307 7.66867C6.38987 7.75702 6.30988 7.86929 6.26007 7.99567C6.22895 8.09592 6.21928 8.2016 6.23168 8.30584C6.24409 8.41007 6.27829 8.51053 6.33207 8.60067C6.69509 9.21766 7.14959 9.77601 7.68007 10.2567C8.0562 10.5904 8.47079 10.8781 8.91507 11.1137C9.25907 11.2947 9.53807 11.4007 9.60107 11.4317C9.75313 11.517 9.92734 11.5547 10.1011 11.5397C10.2786 11.5118 10.4404 11.4214 10.5571 11.2847C10.6951 11.1287 11.1051 10.6597 11.3021 10.3717C11.3101 10.3717 11.3081 10.3717 11.3731 10.3957C11.4031 10.4067 11.7731 10.5737 12.1101 10.7327C12.4471 10.8917 12.7821 11.0567 12.8921 11.1117C13.0511 11.1907 13.1261 11.2417 13.1451 11.2417C13.148 11.284 13.148 11.3264 13.1451 11.3687C13.1244 11.5737 13.078 11.7752 13.0071 11.9687C12.8799 12.1815 12.7006 12.3584 12.4861 12.4827C12.2663 12.6231 12.0252 12.7268 11.7721 12.7897C11.3499 12.8625 10.9165 12.8365 10.5061 12.7137C10.0763 12.5818 9.65375 12.4276 9.24007 12.2517C8.24123 11.7909 7.34438 11.1354 6.60207 10.3237C6.32908 10.0372 6.07107 9.73678 5.82907 9.42368C5.64407 9.18268 5.56307 9.05667 5.49507 8.96767C5.02235 8.35973 4.72681 7.63299 4.64107 6.86767C4.62926 6.56279 4.68602 6.25914 4.80717 5.97911C4.92832 5.69908 5.11077 5.44981 5.34107 5.24968C5.38111 5.20218 5.43039 5.16332 5.48592 5.13547C5.54145 5.10762 5.60206 5.09136 5.66407 5.08767Z" fill="#E45B9F"/>
</svg>
