<svg width="106" height="103" viewBox="0 0 106 103" fill="none" xmlns="http://www.w3.org/2000/svg">
<path d="M84.3384 0.94336L4.88697 16.2913C2.18797 16.8127 0.425299 19.4097 0.949932 22.092L15.825 98.1427C16.3496 100.825 18.9629 102.577 21.6619 102.055L101.113 86.7074C103.812 86.186 105.575 83.5889 105.05 80.9067L90.1753 4.85597C89.6507 2.17372 87.0374 0.421984 84.3384 0.94336Z" fill="#E45B9F"/>
<path d="M71.4488 66.1915L91.2544 62.7442C92.4217 62.541 93.6241 62.8086 94.5971 63.4883C95.5702 64.1679 96.234 65.2038 96.4428 66.3681C96.6515 67.5325 96.388 68.7298 95.7102 69.6968C95.0324 70.6638 93.9958 71.3211 92.8285 71.5243L56.4763 77.8518C48.5738 79.2274 41.0256 73.8188 39.5775 65.7416L37.5601 54.6152C36.5873 49.1947 37.7027 43.6166 40.6831 38.9973C41.9428 37.0352 43.1604 35.0805 43.8235 33.8556C47.8157 26.5058 48.6465 22.1512 49.3134 18.0286C53.1426 17.3621 55.9437 20.949 56.471 23.8902C56.6079 24.6706 56.6351 25.4658 56.5519 26.2527C56.1324 29.6079 55.5571 30.07 54.6338 33.2637C54.3361 34.2169 54.2883 35.2313 54.495 36.2103C54.7017 37.1892 55.156 38.1003 55.8147 38.8567C56.4734 39.6132 57.3147 40.1899 58.2584 40.532C59.2021 40.8741 60.2169 40.9703 61.2064 40.8114L68.9288 39.4672C70.0957 39.2677 71.2963 39.5368 72.2684 40.2158C73.2405 40.8948 73.9052 41.9285 74.1172 43.0912C74.3182 44.2545 74.0516 45.448 73.3751 46.4132C72.6986 47.3783 71.6667 48.0373 70.5029 48.2474" fill="#242424"/>
<path d="M71.4488 66.1915L91.2544 62.7442C92.4217 62.541 93.6241 62.8086 94.5971 63.4883C95.5702 64.1679 96.234 65.2038 96.4428 66.3681C96.6515 67.5325 96.388 68.7298 95.7102 69.6968C95.0324 70.6638 93.9958 71.3211 92.8285 71.5243L56.4763 77.8518C48.5738 79.2274 41.0256 73.8188 39.5775 65.7416L37.5601 54.6152C36.5873 49.1947 37.7027 43.6166 40.6831 38.9973C41.9428 37.0352 43.1604 35.0805 43.8235 33.8556C47.8157 26.5058 48.6465 22.1512 49.3134 18.0286C53.1426 17.3621 55.9437 20.949 56.471 23.8902C56.6079 24.6706 56.6351 25.4658 56.5519 26.2527C56.1324 29.6079 55.5571 30.07 54.6338 33.2637C54.3361 34.2169 54.2883 35.2313 54.495 36.2103C54.7017 37.1892 55.156 38.1003 55.8147 38.8567C56.4734 39.6132 57.3147 40.1899 58.2584 40.532C59.2021 40.8741 60.2169 40.9703 61.2064 40.8114L68.9288 39.4672C70.0957 39.2677 71.2963 39.5368 72.2684 40.2158C73.2405 40.8948 73.9052 41.9285 74.1172 43.0912C74.3182 44.2545 74.0516 45.448 73.3751 46.4132C72.6986 47.3783 71.6667 48.0373 70.5029 48.2474" stroke="black" stroke-width="1.00025" stroke-linecap="round" stroke-linejoin="round"/>
<path d="M70.9617 57.1792L73.1632 56.796C74.3296 56.5965 75.5297 56.8656 76.5015 57.5444C77.4732 58.2232 78.1376 59.2566 78.3496 60.4189C78.5504 61.5819 78.2838 62.775 77.6076 63.7398C76.9314 64.7046 75.8999 65.3635 74.7367 65.5736" fill="#242424"/>
<path d="M70.9617 57.1792L73.1632 56.796C74.3296 56.5965 75.5297 56.8656 76.5015 57.5444C77.4732 58.2232 78.1376 59.2566 78.3496 60.4189C78.5504 61.5819 78.2838 62.775 77.6076 63.7398C76.9314 64.7046 75.8999 65.3635 74.7367 65.5736" stroke="black" stroke-width="1.00025" stroke-linecap="round" stroke-linejoin="round"/>
<path d="M69.4037 48.4141L71.6052 48.0308C72.7716 47.8314 73.9718 48.1004 74.9435 48.7792C75.9153 49.4581 76.5797 50.4915 76.7916 51.6538C76.9924 52.8168 76.7259 54.0099 76.0496 54.9747C75.3734 55.9395 74.342 56.5983 73.1787 56.8085" fill="#242424"/>
<path d="M69.4037 48.4141L71.6052 48.0308C72.7716 47.8314 73.9718 48.1004 74.9435 48.7792C75.9153 49.4581 76.5797 50.4915 76.7916 51.6538C76.9924 52.8168 76.7259 54.0099 76.0496 54.9747C75.3734 55.9395 74.342 56.5983 73.1787 56.8085" stroke="black" stroke-width="1.00025" stroke-linecap="round" stroke-linejoin="round"/>
<path d="M48.7111 43.2077L16.8271 48.7822L22.3036 79.4656L54.1875 73.8911L48.7111 43.2077Z" fill="#242424"/>
<path d="M73.1327 50.9142L67.8243 51.8428L70.4653 66.6472L75.7736 65.7187L73.1327 50.9142Z" fill="#242424"/>
</svg>
