<svg width="378" height="47" viewBox="0 0 378 47" fill="none" xmlns="http://www.w3.org/2000/svg">
<path d="M311.281 15.1289H300.59V11.8477C300.59 10.3164 300.453 9.34115 300.18 8.92188C299.906 8.5026 299.451 8.29297 298.812 8.29297C298.12 8.29297 297.591 8.57552 297.227 9.14062C296.88 9.70573 296.707 10.5625 296.707 11.7109C296.707 13.1875 296.908 14.2995 297.309 15.0469C297.691 15.7943 298.776 16.6966 300.562 17.7539C305.685 20.7982 308.911 23.2956 310.242 25.2461C311.573 27.1966 312.238 30.3411 312.238 34.6797C312.238 37.8333 311.865 40.1576 311.117 41.6523C310.388 43.1471 308.966 44.4049 306.852 45.4258C304.737 46.4284 302.276 46.9297 299.469 46.9297C296.388 46.9297 293.754 46.3464 291.566 45.1797C289.397 44.013 287.975 42.5273 287.301 40.7227C286.626 38.918 286.289 36.3568 286.289 33.0391V30.1406H296.98V35.5273C296.98 37.1862 297.126 38.2526 297.418 38.7266C297.728 39.2005 298.266 39.4375 299.031 39.4375C299.797 39.4375 300.362 39.1367 300.727 38.5352C301.109 37.9336 301.301 37.0404 301.301 35.8555C301.301 33.2487 300.945 31.5443 300.234 30.7422C299.505 29.9401 297.71 28.6003 294.848 26.7227C291.986 24.8268 290.09 23.4505 289.16 22.5938C288.23 21.737 287.456 20.5521 286.836 19.0391C286.234 17.526 285.934 15.5938 285.934 13.2422C285.934 9.85156 286.362 7.3724 287.219 5.80469C288.094 4.23698 289.497 3.01562 291.43 2.14062C293.362 1.2474 295.695 0.800781 298.43 0.800781C301.419 0.800781 303.962 1.28385 306.059 2.25C308.173 3.21615 309.568 4.4375 310.242 5.91406C310.935 7.3724 311.281 9.86068 311.281 13.3789V15.1289Z" fill="#242424"/>
<path d="M284.266 1.73047V10.5898H277.43V46H265.918V10.5898H259.109V1.73047H284.266Z" fill="#242424"/>
<path d="M256.949 21.0352H245.438V13.3242C245.438 11.082 245.31 9.6875 245.055 9.14062C244.818 8.57552 244.28 8.29297 243.441 8.29297C242.493 8.29297 241.892 8.63021 241.637 9.30469C241.382 9.97917 241.254 11.4375 241.254 13.6797V34.2422C241.254 36.3932 241.382 37.7969 241.637 38.4531C241.892 39.1094 242.466 39.4375 243.359 39.4375C244.216 39.4375 244.772 39.1094 245.027 38.4531C245.301 37.7969 245.438 36.2565 245.438 33.832V28.2812H256.949V30.0039C256.949 34.5794 256.621 37.8242 255.965 39.7383C255.327 41.6523 253.896 43.3294 251.672 44.7695C249.466 46.2096 246.741 46.9297 243.496 46.9297C240.124 46.9297 237.344 46.319 235.156 45.0977C232.969 43.8763 231.52 42.1901 230.809 40.0391C230.098 37.8698 229.742 34.6159 229.742 30.2773V17.3438C229.742 14.1536 229.852 11.7656 230.07 10.1797C230.289 8.57552 230.936 7.03516 232.012 5.55859C233.105 4.08203 234.609 2.92448 236.523 2.08594C238.456 1.22917 240.671 0.800781 243.168 0.800781C246.559 0.800781 249.357 1.45703 251.562 2.76953C253.768 4.08203 255.217 5.72266 255.91 7.69141C256.603 9.64193 256.949 12.6862 256.949 16.8242V21.0352Z" fill="#242424"/>
<path d="M206.773 1.73047H225.969V10.5898H218.285V18.9844H225.477V27.4062H218.285V37.1406H226.734V46H206.773V1.73047Z" fill="#242424"/>
<path d="M202.316 1.73047V31.3164C202.316 35.7461 202.271 38.599 202.18 39.875C202.089 41.1328 201.669 42.2721 200.922 43.293C200.193 44.3138 199.19 45.0247 197.914 45.4258C196.656 45.8086 194.751 46 192.199 46H186.43V38.2617C187.122 38.3164 187.624 38.3438 187.934 38.3438C188.754 38.3438 189.401 38.1432 189.875 37.7422C190.349 37.3411 190.622 36.849 190.695 36.2656C190.768 35.6823 190.805 34.5521 190.805 32.875V1.73047H202.316Z" fill="#242424"/>
<path d="M183.914 27.6523C183.914 32.1003 183.805 35.2539 183.586 37.1133C183.385 38.9544 182.729 40.6406 181.617 42.1719C180.523 43.7031 179.038 44.8789 177.16 45.6992C175.283 46.5195 173.095 46.9297 170.598 46.9297C168.228 46.9297 166.095 46.5469 164.199 45.7812C162.322 44.9974 160.809 43.8307 159.66 42.2812C158.512 40.7318 157.828 39.0456 157.609 37.2227C157.391 35.3997 157.281 32.2096 157.281 27.6523V20.0781C157.281 15.6302 157.382 12.4857 157.582 10.6445C157.801 8.78516 158.457 7.08984 159.551 5.55859C160.663 4.02734 162.158 2.85156 164.035 2.03125C165.913 1.21094 168.1 0.800781 170.598 0.800781C172.967 0.800781 175.091 1.19271 176.969 1.97656C178.865 2.74219 180.387 3.89974 181.535 5.44922C182.684 6.9987 183.367 8.6849 183.586 10.5078C183.805 12.3307 183.914 15.5208 183.914 20.0781V27.6523ZM172.402 13.1055C172.402 11.0456 172.284 9.73307 172.047 9.16797C171.828 8.58464 171.363 8.29297 170.652 8.29297C170.051 8.29297 169.586 8.52995 169.258 9.00391C168.948 9.45964 168.793 10.8268 168.793 13.1055V33.7773C168.793 36.3477 168.893 37.9336 169.094 38.5352C169.312 39.1367 169.805 39.4375 170.57 39.4375C171.354 39.4375 171.855 39.0911 172.074 38.3984C172.293 37.7057 172.402 36.056 172.402 33.4492V13.1055Z" fill="#242424"/>
<path d="M127.422 1.73047H135.57C141.003 1.73047 144.676 1.9401 146.59 2.35938C148.522 2.77865 150.09 3.85417 151.293 5.58594C152.514 7.29948 153.125 10.043 153.125 13.8164C153.125 17.2617 152.697 19.5768 151.84 20.7617C150.983 21.9466 149.297 22.6576 146.781 22.8945C149.06 23.4596 150.591 24.2161 151.375 25.1641C152.159 26.112 152.642 26.987 152.824 27.7891C153.025 28.5729 153.125 30.7513 153.125 34.3242V46H142.434V31.2891C142.434 28.9193 142.242 27.4518 141.859 26.8867C141.495 26.3216 140.52 26.0391 138.934 26.0391V46H127.422V1.73047ZM138.934 9.30469V19.1484C140.228 19.1484 141.13 18.9753 141.641 18.6289C142.169 18.2643 142.434 17.1068 142.434 15.1562V12.7227C142.434 11.319 142.178 10.3984 141.668 9.96094C141.176 9.52344 140.264 9.30469 138.934 9.30469Z" fill="#242424"/>
<path d="M99.3125 1.73047H110.906C114.042 1.73047 116.448 1.97656 118.125 2.46875C119.82 2.96094 121.087 3.67188 121.926 4.60156C122.783 5.53125 123.357 6.66146 123.648 7.99219C123.958 9.30469 124.113 11.3464 124.113 14.1172V17.9727C124.113 20.7982 123.822 22.8581 123.238 24.1523C122.655 25.4466 121.579 26.4401 120.012 27.1328C118.462 27.8255 116.43 28.1719 113.914 28.1719H110.824V46H99.3125V1.73047ZM110.824 9.30469V20.5703C111.152 20.5885 111.435 20.5977 111.672 20.5977C112.729 20.5977 113.458 20.3424 113.859 19.832C114.279 19.3034 114.488 18.2188 114.488 16.5781V12.9414C114.488 11.4284 114.251 10.444 113.777 9.98828C113.303 9.53255 112.319 9.30469 110.824 9.30469Z" fill="#242424"/>
<path d="M84.793 1.73047V46H74.7305V16.1133L70.7109 46H63.5742L59.3359 16.7969V46H49.2734V1.73047H64.1758C64.6133 4.39193 65.0781 7.52734 65.5703 11.1367L67.1562 22.4023L69.7812 1.73047H84.793Z" fill="#242424"/>
<path d="M40.7148 1.73047L47.3047 46H35.5195L34.9453 38.043H30.8164L30.1328 46H18.2109L24.0625 1.73047H40.7148ZM34.6172 30.1953C34.0339 25.1823 33.4505 18.9935 32.8672 11.6289C31.7005 20.0872 30.9714 26.276 30.6797 30.1953H34.6172Z" fill="#242424"/>
<path d="M16.3789 1.73047V31.3164C16.3789 35.7461 16.3333 38.599 16.2422 39.875C16.151 41.1328 15.7318 42.2721 14.9844 43.293C14.2552 44.3138 13.2526 45.0247 11.9766 45.4258C10.7188 45.8086 8.8138 46 6.26172 46H0.492188V38.2617C1.1849 38.3164 1.6862 38.3438 1.99609 38.3438C2.81641 38.3438 3.46354 38.1432 3.9375 37.7422C4.41146 37.3411 4.6849 36.849 4.75781 36.2656C4.83073 35.6823 4.86719 34.5521 4.86719 32.875V1.73047H16.3789Z" fill="#242424"/>
<path d="M354.33 43.7841L355.142 27.0801L349.574 42.8561L346.326 41.5801L353.518 26.3841L342.382 38.9121L339.83 36.3601L352.358 25.2241L337.162 32.4161L335.886 29.1681L351.662 23.6001L334.958 24.4121V20.9321L351.662 21.8601L335.886 16.1761L337.162 13.0441L352.358 20.2361L339.83 8.98406L342.382 6.54806L353.518 18.9601L346.326 3.88006L349.574 2.48806L355.142 18.3801L354.33 1.56006H357.81L356.882 18.2641L362.566 2.48806L365.698 3.88006L358.506 18.9601L369.758 6.54806L372.194 8.98406L359.782 20.2361L374.862 13.0441L376.254 16.1761L360.362 21.8601L377.182 20.9321V24.4121L360.362 23.6001L376.254 29.1681L374.862 32.4161L359.782 25.2241L372.194 36.3601L369.758 38.9121L358.506 26.3841L365.698 41.5801L362.566 42.8561L356.882 27.0801L357.81 43.7841H354.33Z" fill="#242424"/>
</svg>
