<svg width="333" height="47" viewBox="0 0 333 47" fill="none" xmlns="http://www.w3.org/2000/svg">
<path d="M309.33 43.7841L310.142 27.0801L304.574 42.8561L301.326 41.5801L308.518 26.3841L297.382 38.9121L294.83 36.3601L307.358 25.2241L292.162 32.4161L290.886 29.1681L306.662 23.6001L289.958 24.4121V20.9321L306.662 21.8601L290.886 16.1761L292.162 13.0441L307.358 20.2361L294.83 8.98406L297.382 6.54806L308.518 18.9601L301.326 3.88006L304.574 2.48806L310.142 18.3801L309.33 1.56006H312.81L311.882 18.2641L317.566 2.48806L320.698 3.88006L313.506 18.9601L324.758 6.54806L327.194 8.98406L314.782 20.2361L329.862 13.0441L331.254 16.1761L315.362 21.8601L332.182 20.9321V24.4121L315.362 23.6001L331.254 29.1681L329.862 32.4161L314.782 25.2241L327.194 36.3601L324.758 38.9121L313.506 26.3841L320.698 41.5801L317.566 42.8561L311.882 27.0801L312.81 43.7841H309.33Z" fill="#fff"/>
<path d="M247.43 1.73047H266.625V10.5898H258.941V18.9844H266.133V27.4062H258.941V37.1406H267.391V46H247.43V1.73047Z" fill="#fff"/>
<path d="M217.242 1.73047H225.391C230.823 1.73047 234.496 1.9401 236.41 2.35938C238.342 2.77865 239.91 3.85417 241.113 5.58594C242.335 7.29948 242.945 10.043 242.945 13.8164C242.945 17.2617 242.517 19.5768 241.66 20.7617C240.803 21.9466 239.117 22.6576 236.602 22.8945C238.88 23.4596 240.411 24.2161 241.195 25.1641C241.979 26.112 242.462 26.987 242.645 27.7891C242.845 28.5729 242.945 30.7513 242.945 34.3242V46H232.254V31.2891C232.254 28.9193 232.062 27.4518 231.68 26.8867C231.315 26.3216 230.34 26.0391 228.754 26.0391V46H217.242V1.73047ZM228.754 9.30469V19.1484C230.048 19.1484 230.951 18.9753 231.461 18.6289C231.99 18.2643 232.254 17.1068 232.254 15.1562V12.7227C232.254 11.319 231.999 10.3984 231.488 9.96094C230.996 9.52344 230.085 9.30469 228.754 9.30469Z" fill="#fff"/>
<path d="M193.945 1.73047H213.141V10.5898H205.457V18.9844H212.648V27.4062H205.457V37.1406H213.906V46H193.945V1.73047Z" fill="#fff"/>
<path d="M189.297 1.73047V46H177.785V27.4062H174.34V46H162.828V1.73047H174.34V17.5625H177.785V1.73047H189.297Z" fill="#fff"/>
<path d="M160.203 1.73047V10.5898H153.367V46H141.855V10.5898H135.047V1.73047H160.203Z" fill="#fff"/>
<path d="M122.797 27.6523C122.797 32.1003 122.688 35.2539 122.469 37.1133C122.268 38.9544 121.612 40.6406 120.5 42.1719C119.406 43.7031 117.921 44.8789 116.043 45.6992C114.165 46.5195 111.978 46.9297 109.48 46.9297C107.111 46.9297 104.978 46.5469 103.082 45.7812C101.204 44.9974 99.6914 43.8307 98.543 42.2812C97.3945 40.7318 96.7109 39.0456 96.4922 37.2227C96.2734 35.3997 96.1641 32.2096 96.1641 27.6523V20.0781C96.1641 15.6302 96.2643 12.4857 96.4648 10.6445C96.6836 8.78516 97.3398 7.08984 98.4336 5.55859C99.5456 4.02734 101.04 2.85156 102.918 2.03125C104.796 1.21094 106.983 0.800781 109.48 0.800781C111.85 0.800781 113.974 1.19271 115.852 1.97656C117.747 2.74219 119.27 3.89974 120.418 5.44922C121.566 6.9987 122.25 8.6849 122.469 10.5078C122.688 12.3307 122.797 15.5208 122.797 20.0781V27.6523ZM111.285 13.1055C111.285 11.0456 111.167 9.73307 110.93 9.16797C110.711 8.58464 110.246 8.29297 109.535 8.29297C108.934 8.29297 108.469 8.52995 108.141 9.00391C107.831 9.45964 107.676 10.8268 107.676 13.1055V33.7773C107.676 36.3477 107.776 37.9336 107.977 38.5352C108.195 39.1367 108.688 39.4375 109.453 39.4375C110.237 39.4375 110.738 39.0911 110.957 38.3984C111.176 37.7057 111.285 36.056 111.285 33.4492V13.1055Z" fill="#fff"/>
<path d="M87.5508 1.73047V37.1406H94.5508V46H76.0391V1.73047H87.5508Z" fill="#fff"/>
<path d="M66.2227 1.73047V37.1406H73.2227V46H54.7109V1.73047H66.2227Z" fill="#fff"/>
<path d="M31.4141 1.73047H50.6094V10.5898H42.9258V18.9844H50.1172V27.4062H42.9258V37.1406H51.375V46H31.4141V1.73047Z" fill="#fff"/>
<path d="M26.7656 1.73047V46H15.2539V27.4062H11.8086V46H0.296875V1.73047H11.8086V17.5625H15.2539V1.73047H26.7656Z" fill="#fff"/>
</svg>
